<svg width="1200" height="700" viewBox="0 0 1200 700" fill="none" xmlns="http://www.w3.org/2000/svg">
  <defs>
    <linearGradient id="bg" x1="0" y1="0" x2="1200" y2="700" gradientUnits="userSpaceOnUse">
      <stop stop-color="#0F172A"/>
      <stop offset="0.5" stop-color="#1E3A8A"/>
      <stop offset="1" stop-color="#312E81"/>
    </linearGradient>
    <linearGradient id="glow" x1="0" y1="0" x2="1" y2="1">
      <stop stop-color="#22D3EE" stop-opacity="0.9"/>
      <stop offset="1" stop-color="#A78BFA" stop-opacity="0.9"/>
    </linearGradient>
  </defs>

  <rect width="1200" height="700" fill="url(#bg)"/>

  <g opacity="0.28" stroke="#93C5FD" stroke-width="2">
    <path d="M80 120H440"/>
    <path d="M180 220H720"/>
    <path d="M60 340H510"/>
    <path d="M410 470H980"/>
    <path d="M250 600H860"/>
    <path d="M560 120H1120"/>
    <path d="M760 280H1140"/>
  </g>

  <g fill="#67E8F9" opacity="0.9">
    <circle cx="180" cy="120" r="8"/>
    <circle cx="440" cy="120" r="8"/>
    <circle cx="720" cy="220" r="8"/>
    <circle cx="980" cy="470" r="8"/>
    <circle cx="1120" cy="120" r="8"/>
    <circle cx="1140" cy="280" r="8"/>
    <circle cx="860" cy="600" r="8"/>
  </g>

  <g filter="url(#none)">
    <rect x="320" y="170" width="560" height="360" rx="28" fill="#0B1226" fill-opacity="0.72" stroke="url(#glow)" stroke-width="2.5"/>
    <rect x="360" y="220" width="220" height="18" rx="9" fill="#22D3EE" fill-opacity="0.8"/>
    <rect x="360" y="255" width="360" height="12" rx="6" fill="#93C5FD" fill-opacity="0.55"/>
    <rect x="360" y="283" width="300" height="12" rx="6" fill="#93C5FD" fill-opacity="0.35"/>

    <rect x="360" y="340" width="120" height="120" rx="18" fill="#1E40AF" fill-opacity="0.65"/>
    <rect x="500" y="340" width="120" height="120" rx="18" fill="#0EA5E9" fill-opacity="0.55"/>
    <rect x="640" y="340" width="200" height="18" rx="9" fill="#C4B5FD" fill-opacity="0.75"/>
    <rect x="640" y="372" width="160" height="12" rx="6" fill="#DDD6FE" fill-opacity="0.55"/>
    <rect x="640" y="396" width="190" height="12" rx="6" fill="#DDD6FE" fill-opacity="0.35"/>
  </g>

  <text x="600" y="620" text-anchor="middle" fill="#DBEAFE" font-family="Arial, Helvetica, sans-serif" font-size="36" font-weight="700" letter-spacing="2">
    TECH INSIGHTS
  </text>
</svg>
